<svg width="2405.2" height="97.2" viewBox="0 0 2405.2 97.2" xmlns="http://www.w3.org/2000/svg"><g id="svgGroup" stroke-linecap="round" fill-rule="evenodd" font-size="9pt" stroke="#000" stroke-width="0.25mm" fill="#000" style="stroke:#000;stroke-width:0.25mm;fill:#000"><path d="M 387.8 74 L 378.8 74 L 378.8 22 L 387.5 22 L 387.5 30.7 Q 390.3 26.5 394.6 23.65 A 17.205 17.205 0 0 1 403.802 20.809 A 20.858 20.858 0 0 1 404.4 20.8 A 20.994 20.994 0 0 1 408.817 21.24 Q 411.803 21.882 414.085 23.463 A 13.128 13.128 0 0 1 414.55 23.8 A 15.751 15.751 0 0 1 419.998 31.489 A 19.154 19.154 0 0 1 420.1 31.8 Q 423.2 27.2 427.45 24 A 15.669 15.669 0 0 1 434.241 21.116 A 21.446 21.446 0 0 1 438 20.8 A 21.437 21.437 0 0 1 442.888 21.322 Q 446.474 22.162 448.963 24.351 A 12.994 12.994 0 0 1 450.65 26.15 A 18.992 18.992 0 0 1 454.061 33.422 Q 454.8 36.472 454.8 40.1 L 454.8 74 L 445.8 74 L 445.8 40.8 A 19.042 19.042 0 0 0 445.463 37.111 Q 445.027 34.905 444.028 33.161 A 10.982 10.982 0 0 0 443.3 32.05 A 7.974 7.974 0 0 0 437.487 28.754 A 10.678 10.678 0 0 0 436.4 28.7 A 11.926 11.926 0 0 0 429.641 30.827 A 15.996 15.996 0 0 0 428.05 32.05 Q 424.2 35.4 421.3 39.9 L 421.3 74 L 412.3 74 L 412.3 40.8 A 19.042 19.042 0 0 0 411.963 37.111 Q 411.527 34.905 410.528 33.161 A 10.982 10.982 0 0 0 409.8 32.05 A 7.974 7.974 0 0 0 403.987 28.754 A 10.678 10.678 0 0 0 402.9 28.7 A 12.02 12.02 0 0 0 396.581 30.528 A 16.244 16.244 0 0 0 394.6 31.95 Q 390.7 35.2 387.8 39.6 L 387.8 74 Z M 993.5 74 L 984.5 74 L 984.5 22 L 993.2 22 L 993.2 30.7 Q 996 26.5 1000.3 23.65 A 17.205 17.205 0 0 1 1009.502 20.809 A 20.858 20.858 0 0 1 1010.1 20.8 A 20.994 20.994 0 0 1 1014.517 21.24 Q 1017.503 21.882 1019.785 23.463 A 13.128 13.128 0 0 1 1020.25 23.8 A 15.751 15.751 0 0 1 1025.698 31.489 A 19.154 19.154 0 0 1 1025.8 31.8 Q 1028.9 27.2 1033.15 24 A 15.669 15.669 0 0 1 1039.941 21.116 A 21.446 21.446 0 0 1 1043.7 20.8 A 21.437 21.437 0 0 1 1048.588 21.322 Q 1052.174 22.162 1054.663 24.351 A 12.994 12.994 0 0 1 1056.35 26.15 A 18.992 18.992 0 0 1 1059.761 33.422 Q 1060.5 36.472 1060.5 40.1 L 1060.5 74 L 1051.5 74 L 1051.5 40.8 A 19.042 19.042 0 0 0 1051.163 37.111 Q 1050.727 34.905 1049.728 33.161 A 10.982 10.982 0 0 0 1049 32.05 A 7.974 7.974 0 0 0 1043.187 28.754 A 10.678 10.678 0 0 0 1042.1 28.7 A 11.926 11.926 0 0 0 1035.341 30.827 A 15.996 15.996 0 0 0 1033.75 32.05 Q 1029.9 35.4 1027 39.9 L 1027 74 L 1018 74 L 1018 40.8 A 19.042 19.042 0 0 0 1017.663 37.111 Q 1017.227 34.905 1016.228 33.161 A 10.982 10.982 0 0 0 1015.5 32.05 A 7.974 7.974 0 0 0 1009.687 28.754 A 10.678 10.678 0 0 0 1008.6 28.7 A 12.02 12.02 0 0 0 1002.281 30.528 A 16.244 16.244 0 0 0 1000.3 31.95 Q 996.4 35.2 993.5 39.6 L 993.5 74 Z M 42 74 L 0 74 L 0 4 L 42 4 L 42 12.2 L 9.5 12.2 L 9.5 33.5 L 37.5 33.5 L 37.5 41.5 L 9.5 41.5 L 9.5 65.8 L 42 65.8 L 42 74 Z M 2080.4 74 L 2071.4 74 L 2071.4 0 L 2080.4 0 L 2080.4 30.3 Q 2083.2 26.2 2087.5 23.5 A 17.572 17.572 0 0 1 2094.625 20.991 A 22.595 22.595 0 0 1 2097.6 20.8 A 23.225 23.225 0 0 1 2102.665 21.318 Q 2107.759 22.456 2110.75 26.1 Q 2114.875 31.126 2115.088 39.209 A 33.764 33.764 0 0 1 2115.1 40.1 L 2115.1 74 L 2106.1 74 L 2106.1 41.1 Q 2106.1 35.5 2103.5 32.1 A 8.42 8.42 0 0 0 2097.342 28.753 A 11.979 11.979 0 0 0 2096.2 28.7 A 13.23 13.23 0 0 0 2089.487 30.566 A 17.586 17.586 0 0 0 2087.45 31.95 Q 2083.3 35.2 2080.4 39.6 L 2080.4 74 Z M 1819.8 95.2 L 1821.8 87.7 A 9.908 9.908 0 0 0 1822.965 88.274 Q 1823.788 88.619 1824.8 88.9 A 13.514 13.514 0 0 0 1827.079 89.317 A 17.358 17.358 0 0 0 1828.8 89.4 Q 1833 89.4 1836.3 86.7 A 12.003 12.003 0 0 0 1838.233 84.639 Q 1839.981 82.328 1841.641 78.475 A 58.58 58.58 0 0 0 1842.6 76.1 L 1844.9 70.1 L 1840.1 70.1 L 1819.8 24.4 L 1827.8 20.8 L 1847.2 64.1 L 1862.3 21.2 L 1870.6 24.4 L 1851.5 76.6 A 71.728 71.728 0 0 1 1849.447 81.686 Q 1848.345 84.126 1847.178 86.114 A 30.86 30.86 0 0 1 1845.2 89.1 A 24.268 24.268 0 0 1 1842.322 92.311 Q 1840.408 94.079 1838.305 95.118 A 14.737 14.737 0 0 1 1837.7 95.4 Q 1833.6 97.2 1828.6 97.2 Q 1825.6 97.2 1823.35 96.6 Q 1821.1 96 1819.8 95.2 Z M 1702.2 55.8 L 1702.2 22 L 1711.2 22 L 1711.2 54.6 A 22.981 22.981 0 0 0 1711.454 58.134 Q 1711.742 59.981 1712.357 61.469 A 10.136 10.136 0 0 0 1713.8 63.95 A 8.404 8.404 0 0 0 1718.913 66.971 A 12.807 12.807 0 0 0 1721.4 67.2 Q 1725.5 67.2 1729.35 65.55 Q 1733.2 63.9 1736.2 61.1 L 1736.2 22 L 1745.2 22 L 1745.2 60.5 A 15.602 15.602 0 0 0 1745.302 62.354 Q 1745.634 65.116 1747.05 66.15 Q 1748.9 67.5 1751.1 67.5 L 1749.2 74.5 Q 1739.9 74.5 1737.7 67.1 Q 1734.2 70.7 1729.6 72.95 Q 1725 75.2 1719.7 75.2 Q 1715.2 75.2 1711.2 73.3 A 14.441 14.441 0 0 1 1705.69 68.661 A 18.266 18.266 0 0 1 1704.7 67.15 A 16.24 16.24 0 0 1 1703.036 63.057 Q 1702.2 59.905 1702.2 55.8 Z M 1970.8 55.8 L 1970.8 22 L 1979.8 22 L 1979.8 54.6 A 22.981 22.981 0 0 0 1980.054 58.134 Q 1980.342 59.981 1980.957 61.469 A 10.136 10.136 0 0 0 1982.4 63.95 A 8.404 8.404 0 0 0 1987.513 66.971 A 12.807 12.807 0 0 0 1990 67.2 Q 1994.1 67.2 1997.95 65.55 Q 2001.8 63.9 2004.8 61.1 L 2004.8 22 L 2013.8 22 L 2013.8 60.5 A 15.602 15.602 0 0 0 2013.902 62.354 Q 2014.234 65.116 2015.65 66.15 Q 2017.5 67.5 2019.7 67.5 L 2017.8 74.5 Q 2008.5 74.5 2006.3 67.1 Q 2002.8 70.7 1998.2 72.95 Q 1993.6 75.2 1988.3 75.2 Q 1983.8 75.2 1979.8 73.3 A 14.441 14.441 0 0 1 1974.29 68.661 A 18.266 18.266 0 0 1 1973.3 67.15 A 16.24 16.24 0 0 1 1971.636 63.057 Q 1970.8 59.905 1970.8 55.8 Z M 596.8 74 L 587.8 74 L 587.8 22 L 596.5 22 L 596.5 30.7 Q 599.3 26.5 603.65 23.65 A 17.316 17.316 0 0 1 610.756 21.025 A 22.629 22.629 0 0 1 614 20.8 A 23.225 23.225 0 0 1 619.065 21.318 Q 624.159 22.456 627.15 26.1 Q 631.275 31.126 631.488 39.209 A 33.764 33.764 0 0 1 631.5 40.1 L 631.5 74 L 622.5 74 L 622.5 41.1 A 19.265 19.265 0 0 0 622.158 37.359 Q 621.719 35.145 620.719 33.397 A 10.966 10.966 0 0 0 619.85 32.1 A 8.579 8.579 0 0 0 613.573 28.747 A 12.061 12.061 0 0 0 612.5 28.7 A 13.122 13.122 0 0 0 605.651 30.664 A 17.353 17.353 0 0 0 603.8 31.95 Q 599.7 35.2 596.8 39.6 L 596.8 74 Z M 1110 74 L 1101 74 L 1101 22 L 1109.7 22 L 1109.7 30.7 Q 1112.5 26.5 1116.85 23.65 A 17.316 17.316 0 0 1 1123.956 21.025 A 22.629 22.629 0 0 1 1127.2 20.8 A 23.225 23.225 0 0 1 1132.265 21.318 Q 1137.359 22.456 1140.35 26.1 Q 1144.475 31.126 1144.688 39.209 A 33.764 33.764 0 0 1 1144.7 40.1 L 1144.7 74 L 1135.7 74 L 1135.7 41.1 A 19.265 19.265 0 0 0 1135.358 37.359 Q 1134.919 35.145 1133.919 33.397 A 10.966 10.966 0 0 0 1133.05 32.1 A 8.579 8.579 0 0 0 1126.773 28.747 A 12.061 12.061 0 0 0 1125.7 28.7 A 13.122 13.122 0 0 0 1118.851 30.664 A 17.353 17.353 0 0 0 1117 31.95 Q 1112.9 35.2 1110 39.6 L 1110 74 Z M 1664.2 74 L 1654.7 74 L 1654.7 4 L 1696.2 4 L 1696.2 12.2 L 1664.2 12.2 L 1664.2 33.6 L 1690.9 33.6 L 1690.9 41.4 L 1664.2 41.4 L 1664.2 74 Z M 2291 74 L 2250.8 74 L 2250.8 66.9 L 2279.5 29.8 L 2251.4 29.8 L 2251.4 22 L 2290.5 22 L 2290.5 28.9 L 2261.9 66 L 2291 66 L 2291 74 Z M 1344.3 71.5 L 1335.6 75 L 1327.8 55 L 1295.4 55 L 1287.6 74.8 L 1279.5 71.5 L 1306.9 4 L 1317.3 4 L 1344.3 71.5 Z M 190.1 69.8 L 193.9 62.3 A 18.557 18.557 0 0 0 197.044 64.426 Q 198.598 65.27 200.45 65.95 A 24.073 24.073 0 0 0 208.061 67.387 A 27.464 27.464 0 0 0 208.9 67.4 Q 214.292 67.4 217.135 65.685 A 7.738 7.738 0 0 0 217.35 65.55 Q 220.2 63.7 220.2 60.8 A 7.123 7.123 0 0 0 219.886 58.653 A 6.212 6.212 0 0 0 219.15 57.1 A 6.384 6.384 0 0 0 218.221 56.006 Q 217.207 55.034 215.534 54.081 A 22.3 22.3 0 0 0 215.3 53.95 A 28.462 28.462 0 0 0 213.306 52.957 Q 211.19 51.995 208.201 50.946 A 103.602 103.602 0 0 0 207.2 50.6 A 46.616 46.616 0 0 1 202.802 48.857 Q 200.688 47.883 199.012 46.795 A 19.335 19.335 0 0 1 196.25 44.65 A 11.324 11.324 0 0 1 192.956 38.654 A 16.794 16.794 0 0 1 192.6 35.1 Q 192.6 29.1 197.85 24.95 Q 202.254 21.469 209.508 20.908 A 37.527 37.527 0 0 1 212.4 20.8 A 40.794 40.794 0 0 1 216.846 21.031 Q 219.154 21.284 221.17 21.815 A 25.234 25.234 0 0 1 221.3 21.85 Q 225.2 22.9 228.3 24.5 L 225.8 31.9 Q 223.1 30.3 219.65 29.3 A 25.024 25.024 0 0 0 215.167 28.453 A 31.837 31.837 0 0 0 212 28.3 A 20.632 20.632 0 0 0 209.063 28.495 Q 205.977 28.94 204.1 30.4 A 9.322 9.322 0 0 0 202.742 31.673 Q 202.04 32.492 201.705 33.365 A 4.529 4.529 0 0 0 201.4 35 A 4.921 4.921 0 0 0 202.895 38.552 A 7.082 7.082 0 0 0 203.5 39.1 A 9.88 9.88 0 0 0 204.8 39.969 Q 207.073 41.271 211.498 42.734 A 84.459 84.459 0 0 0 211.7 42.8 A 67.753 67.753 0 0 1 216.762 44.698 Q 222.689 47.217 225.5 50.1 Q 229.4 54.1 229.4 60.1 Q 229.4 66.848 224.149 70.855 A 16.618 16.618 0 0 1 223.75 71.15 Q 219.01 74.547 211.562 75.095 A 40.423 40.423 0 0 1 208.6 75.2 Q 202.7 75.2 197.95 73.7 A 30.883 30.883 0 0 1 194.11 72.215 Q 192.129 71.284 190.548 70.136 A 18.229 18.229 0 0 1 190.1 69.8 Z M 1495.6 69.8 L 1499.4 62.3 A 18.557 18.557 0 0 0 1502.544 64.426 Q 1504.098 65.27 1505.95 65.95 A 24.073 24.073 0 0 0 1513.561 67.387 A 27.464 27.464 0 0 0 1514.4 67.4 Q 1519.792 67.4 1522.635 65.685 A 7.738 7.738 0 0 0 1522.85 65.55 Q 1525.7 63.7 1525.7 60.8 A 7.123 7.123 0 0 0 1525.386 58.653 A 6.212 6.212 0 0 0 1524.65 57.1 A 6.384 6.384 0 0 0 1523.721 56.006 Q 1522.707 55.034 1521.034 54.081 A 22.3 22.3 0 0 0 1520.8 53.95 A 28.462 28.462 0 0 0 1518.806 52.957 Q 1516.69 51.995 1513.701 50.946 A 103.602 103.602 0 0 0 1512.7 50.6 A 46.616 46.616 0 0 1 1508.302 48.857 Q 1506.188 47.883 1504.512 46.795 A 19.335 19.335 0 0 1 1501.75 44.65 A 11.324 11.324 0 0 1 1498.456 38.654 A 16.794 16.794 0 0 1 1498.1 35.1 Q 1498.1 29.1 1503.35 24.95 Q 1507.754 21.469 1515.008 20.908 A 37.527 37.527 0 0 1 1517.9 20.8 A 40.794 40.794 0 0 1 1522.346 21.031 Q 1524.654 21.284 1526.67 21.815 A 25.234 25.234 0 0 1 1526.8 21.85 Q 1530.7 22.9 1533.8 24.5 L 1531.3 31.9 Q 1528.6 30.3 1525.15 29.3 A 25.024 25.024 0 0 0 1520.667 28.453 A 31.837 31.837 0 0 0 1517.5 28.3 A 20.632 20.632 0 0 0 1514.563 28.495 Q 1511.477 28.94 1509.6 30.4 A 9.322 9.322 0 0 0 1508.242 31.673 Q 1507.54 32.492 1507.205 33.365 A 4.529 4.529 0 0 0 1506.9 35 A 4.921 4.921 0 0 0 1508.395 38.552 A 7.082 7.082 0 0 0 1509 39.1 A 9.88 9.88 0 0 0 1510.3 39.969 Q 1512.573 41.271 1516.998 42.734 A 84.459 84.459 0 0 0 1517.2 42.8 A 67.753 67.753 0 0 1 1522.262 44.698 Q 1528.189 47.217 1531 50.1 Q 1534.9 54.1 1534.9 60.1 Q 1534.9 66.848 1529.649 70.855 A 16.618 16.618 0 0 1 1529.25 71.15 Q 1524.51 74.547 1517.062 75.095 A 40.423 40.423 0 0 1 1514.1 75.2 Q 1508.2 75.2 1503.45 73.7 A 30.883 30.883 0 0 1 1499.61 72.215 Q 1497.629 71.284 1496.048 70.136 A 18.229 18.229 0 0 1 1495.6 69.8 Z M 1542.4 69.8 L 1546.2 62.3 A 18.557 18.557 0 0 0 1549.344 64.426 Q 1550.898 65.27 1552.75 65.95 A 24.073 24.073 0 0 0 1560.361 67.387 A 27.464 27.464 0 0 0 1561.2 67.4 Q 1566.592 67.4 1569.435 65.685 A 7.738 7.738 0 0 0 1569.65 65.55 Q 1572.5 63.7 1572.5 60.8 A 7.123 7.123 0 0 0 1572.186 58.653 A 6.212 6.212 0 0 0 1571.45 57.1 A 6.384 6.384 0 0 0 1570.521 56.006 Q 1569.507 55.034 1567.834 54.081 A 22.3 22.3 0 0 0 1567.6 53.95 A 28.462 28.462 0 0 0 1565.606 52.957 Q 1563.49 51.995 1560.501 50.946 A 103.602 103.602 0 0 0 1559.5 50.6 A 46.616 46.616 0 0 1 1555.102 48.857 Q 1552.988 47.883 1551.312 46.795 A 19.335 19.335 0 0 1 1548.55 44.65 A 11.324 11.324 0 0 1 1545.256 38.654 A 16.794 16.794 0 0 1 1544.9 35.1 Q 1544.9 29.1 1550.15 24.95 Q 1554.554 21.469 1561.808 20.908 A 37.527 37.527 0 0 1 1564.7 20.8 A 40.794 40.794 0 0 1 1569.146 21.031 Q 1571.454 21.284 1573.47 21.815 A 25.234 25.234 0 0 1 1573.6 21.85 Q 1577.5 22.9 1580.6 24.5 L 1578.1 31.9 Q 1575.4 30.3 1571.95 29.3 A 25.024 25.024 0 0 0 1567.467 28.453 A 31.837 31.837 0 0 0 1564.3 28.3 A 20.632 20.632 0 0 0 1561.363 28.495 Q 1558.277 28.94 1556.4 30.4 A 9.322 9.322 0 0 0 1555.042 31.673 Q 1554.34 32.492 1554.005 33.365 A 4.529 4.529 0 0 0 1553.7 35 A 4.921 4.921 0 0 0 1555.195 38.552 A 7.082 7.082 0 0 0 1555.8 39.1 A 9.88 9.88 0 0 0 1557.1 39.969 Q 1559.373 41.271 1563.798 42.734 A 84.459 84.459 0 0 0 1564 42.8 A 67.753 67.753 0 0 1 1569.062 44.698 Q 1574.989 47.217 1577.8 50.1 Q 1581.7 54.1 1581.7 60.1 Q 1581.7 66.848 1576.449 70.855 A 16.618 16.618 0 0 1 1576.05 71.15 Q 1571.31 74.547 1563.862 75.095 A 40.423 40.423 0 0 1 1560.9 75.2 Q 1555 75.2 1550.25 73.7 A 30.883 30.883 0 0 1 1546.41 72.215 Q 1544.429 71.284 1542.848 70.136 A 18.229 18.229 0 0 1 1542.4 69.8 Z M 511.9 74 L 476.7 74 L 476.7 66 L 491 66 L 491 15.5 L 477.6 25.6 L 472.7 18.9 L 493.4 4 L 500 4 L 500 66 L 511.9 66 L 511.9 74 Z M 868.2 74 L 858.7 74 L 858.7 12.4 L 837.2 12.4 L 837.2 4 L 889.7 4 L 889.7 12.4 L 868.2 12.4 L 868.2 74 Z M 2390.3 27.2 L 2390.3 0 L 2399.3 0 L 2399.3 61.4 A 12.15 12.15 0 0 0 2399.402 63.036 Q 2399.734 65.47 2401.15 66.35 Q 2403 67.5 2405.2 67.5 L 2403.3 74.5 Q 2393.8 74.5 2391.7 66.9 Q 2389.5 70 2385.55 72.6 Q 2381.6 75.2 2375.6 75.2 Q 2369.2 75.2 2363.9 71.9 A 22.692 22.692 0 0 1 2356.362 64.109 A 27.622 27.622 0 0 1 2355.5 62.55 A 27.533 27.533 0 0 1 2352.912 54.608 A 37.221 37.221 0 0 1 2352.4 48.3 A 33.94 33.94 0 0 1 2353.289 40.386 A 27.963 27.963 0 0 1 2355.55 34.2 A 27.291 27.291 0 0 1 2360.169 27.609 A 24.186 24.186 0 0 1 2363.95 24.4 Q 2369.2 20.8 2375.5 20.8 A 21.642 21.642 0 0 1 2379.772 21.202 A 15.942 15.942 0 0 1 2384.45 22.9 A 34.343 34.343 0 0 1 2387.03 24.489 Q 2388.254 25.324 2389.225 26.174 A 16.59 16.59 0 0 1 2390.3 27.2 Z M 144.9 51.7 L 108.5 51.7 A 24.088 24.088 0 0 0 109.639 56.725 Q 110.975 60.538 113.6 63.1 Q 117.8 67.2 124.7 67.2 Q 129.2 67.2 132.8 66.25 Q 136.4 65.3 139.7 63.8 L 141.8 71.5 A 40.77 40.77 0 0 1 137.465 73.126 A 51.863 51.863 0 0 1 133.7 74.15 A 38.914 38.914 0 0 1 128.608 74.969 A 52.025 52.025 0 0 1 123.6 75.2 A 28.318 28.318 0 0 1 115.854 74.195 A 21.108 21.108 0 0 1 105.85 68.05 A 23.521 23.521 0 0 1 100.645 58.51 Q 99.3 53.845 99.3 48 A 35.359 35.359 0 0 1 100.133 40.178 A 28.84 28.84 0 0 1 102.25 34.05 A 24.642 24.642 0 0 1 107.266 26.968 A 22.887 22.887 0 0 1 110.5 24.35 A 21.048 21.048 0 0 1 120.759 20.878 A 26.205 26.205 0 0 1 122.8 20.8 Q 130.3 20.8 135.25 24.05 Q 140.2 27.3 142.7 32.8 A 28.185 28.185 0 0 1 145.126 42.664 A 33.434 33.434 0 0 1 145.2 44.9 A 75.204 75.204 0 0 1 144.909 51.597 A 69.426 69.426 0 0 1 144.9 51.7 Z M 932.3 51.7 L 895.9 51.7 A 24.088 24.088 0 0 0 897.039 56.725 Q 898.375 60.538 901 63.1 Q 905.2 67.2 912.1 67.2 Q 916.6 67.2 920.2 66.25 Q 923.8 65.3 927.1 63.8 L 929.2 71.5 A 40.77 40.77 0 0 1 924.865 73.126 A 51.863 51.863 0 0 1 921.1 74.15 A 38.914 38.914 0 0 1 916.008 74.969 A 52.025 52.025 0 0 1 911 75.2 A 28.318 28.318 0 0 1 903.254 74.195 A 21.108 21.108 0 0 1 893.25 68.05 A 23.521 23.521 0 0 1 888.045 58.51 Q 886.7 53.845 886.7 48 A 35.359 35.359 0 0 1 887.533 40.178 A 28.84 28.84 0 0 1 889.65 34.05 A 24.642 24.642 0 0 1 894.666 26.968 A 22.887 22.887 0 0 1 897.9 24.35 A 21.048 21.048 0 0 1 908.159 20.878 A 26.205 26.205 0 0 1 910.2 20.8 Q 917.7 20.8 922.65 24.05 Q 927.6 27.3 930.1 32.8 A 28.185 28.185 0 0 1 932.526 42.664 A 33.434 33.434 0 0 1 932.6 44.9 A 75.204 75.204 0 0 1 932.309 51.597 A 69.426 69.426 0 0 1 932.3 51.7 Z M 1487.8 51.7 L 1451.4 51.7 A 24.088 24.088 0 0 0 1452.539 56.725 Q 1453.875 60.538 1456.5 63.1 Q 1460.7 67.2 1467.6 67.2 Q 1472.1 67.2 1475.7 66.25 Q 1479.3 65.3 1482.6 63.8 L 1484.7 71.5 A 40.77 40.77 0 0 1 1480.365 73.126 A 51.863 51.863 0 0 1 1476.6 74.15 A 38.914 38.914 0 0 1 1471.508 74.969 A 52.025 52.025 0 0 1 1466.5 75.2 A 28.318 28.318 0 0 1 1458.754 74.195 A 21.108 21.108 0 0 1 1448.75 68.05 A 23.521 23.521 0 0 1 1443.545 58.51 Q 1442.2 53.845 1442.2 48 A 35.359 35.359 0 0 1 1443.033 40.178 A 28.84 28.84 0 0 1 1445.15 34.05 A 24.642 24.642 0 0 1 1450.166 26.968 A 22.887 22.887 0 0 1 1453.4 24.35 A 21.048 21.048 0 0 1 1463.659 20.878 A 26.205 26.205 0 0 1 1465.7 20.8 Q 1473.2 20.8 1478.15 24.05 Q 1483.1 27.3 1485.6 32.8 A 28.185 28.185 0 0 1 1488.026 42.664 A 33.434 33.434 0 0 1 1488.1 44.9 A 75.204 75.204 0 0 1 1487.809 51.597 A 69.426 69.426 0 0 1 1487.8 51.7 Z M 2343.6 51.7 L 2307.2 51.7 A 24.088 24.088 0 0 0 2308.339 56.725 Q 2309.675 60.538 2312.3 63.1 Q 2316.5 67.2 2323.4 67.2 Q 2327.9 67.2 2331.5 66.25 Q 2335.1 65.3 2338.4 63.8 L 2340.5 71.5 A 40.77 40.77 0 0 1 2336.165 73.126 A 51.863 51.863 0 0 1 2332.4 74.15 A 38.914 38.914 0 0 1 2327.308 74.969 A 52.025 52.025 0 0 1 2322.3 75.2 A 28.318 28.318 0 0 1 2314.554 74.195 A 21.108 21.108 0 0 1 2304.55 68.05 A 23.521 23.521 0 0 1 2299.345 58.51 Q 2298 53.845 2298 48 A 35.359 35.359 0 0 1 2298.833 40.178 A 28.84 28.84 0 0 1 2300.95 34.05 A 24.642 24.642 0 0 1 2305.966 26.968 A 22.887 22.887 0 0 1 2309.2 24.35 A 21.048 21.048 0 0 1 2319.459 20.878 A 26.205 26.205 0 0 1 2321.5 20.8 Q 2329 20.8 2333.95 24.05 Q 2338.9 27.3 2341.4 32.8 A 28.185 28.185 0 0 1 2343.826 42.664 A 33.434 33.434 0 0 1 2343.9 44.9 A 75.204 75.204 0 0 1 2343.609 51.597 A 69.426 69.426 0 0 1 2343.6 51.7 Z M 74.8 74 L 65.4 74 L 44.5 24.4 L 52.7 21 L 70.4 63.8 L 88.1 21 L 95.8 24.4 L 74.8 74 Z M 243.4 56.1 L 243.4 31.7 L 234.4 31.7 L 234.4 23.9 L 243.6 23.9 L 245.5 7.5 L 252.4 7.5 L 252.4 23.9 L 266.8 23.9 L 266.8 31.7 L 252.4 31.7 L 252.4 56.8 A 21.559 21.559 0 0 0 252.568 59.596 Q 253.041 63.202 254.85 64.9 Q 257.3 67.2 260.7 67.2 Q 263.2 67.2 265.45 66.4 Q 267.7 65.6 269.6 64.5 L 272.1 71.7 A 18.546 18.546 0 0 1 270.482 72.556 Q 269.68 72.935 268.734 73.308 A 43.365 43.365 0 0 1 266.7 74.05 Q 263.3 75.2 259.6 75.2 Q 252.1 75.2 247.75 70.25 A 16.116 16.116 0 0 1 244.522 64.348 Q 243.759 61.917 243.515 58.98 A 34.777 34.777 0 0 1 243.4 56.1 Z M 2033.7 56.1 L 2033.7 31.7 L 2024.7 31.7 L 2024.7 23.9 L 2033.9 23.9 L 2035.8 7.5 L 2042.7 7.5 L 2042.7 23.9 L 2057.1 23.9 L 2057.1 31.7 L 2042.7 31.7 L 2042.7 56.8 A 21.559 21.559 0 0 0 2042.868 59.596 Q 2043.341 63.202 2045.15 64.9 Q 2047.6 67.2 2051 67.2 Q 2053.5 67.2 2055.75 66.4 Q 2058 65.6 2059.9 64.5 L 2062.4 71.7 A 18.546 18.546 0 0 1 2060.782 72.556 Q 2059.98 72.935 2059.034 73.308 A 43.365 43.365 0 0 1 2057 74.05 Q 2053.6 75.2 2049.9 75.2 Q 2042.4 75.2 2038.05 70.25 A 16.116 16.116 0 0 1 2034.822 64.348 Q 2034.059 61.917 2033.815 58.98 A 34.777 34.777 0 0 1 2033.7 56.1 Z M 682.9 23.9 L 680.2 31.5 A 30.422 30.422 0 0 0 677.296 30.224 A 23.42 23.42 0 0 0 674.85 29.45 A 20.543 20.543 0 0 0 671.807 28.924 A 26.355 26.355 0 0 0 669.2 28.8 A 15.889 15.889 0 0 0 661.947 30.443 A 16.132 16.132 0 0 0 657.45 33.85 Q 652.7 38.9 652.7 47.8 A 25.192 25.192 0 0 0 653.405 53.86 A 21.45 21.45 0 0 0 654.7 57.6 A 18.564 18.564 0 0 0 657.61 62.177 A 16.275 16.275 0 0 0 660.25 64.6 Q 663.8 67.2 668.6 67.2 Q 671.765 67.2 674.168 66.61 A 15.08 15.08 0 0 0 675.1 66.35 Q 677.789 65.503 680.876 63.912 A 49.095 49.095 0 0 0 680.9 63.9 L 683.7 71.5 Q 680.6 73.2 676.75 74.2 Q 672.9 75.2 668 75.2 A 26.803 26.803 0 0 1 660.961 74.31 A 22.074 22.074 0 0 1 655.05 71.75 Q 649.5 68.3 646.5 62.15 Q 643.5 56 643.5 48 Q 643.5 40.5 646.55 34.3 Q 649.6 28.1 655.3 24.45 A 23.067 23.067 0 0 1 664.968 21.029 A 29.608 29.608 0 0 1 668.7 20.8 Q 673.1 20.8 676.45 21.6 Q 679.8 22.4 682.9 23.9 Z M 1389.2 23.9 L 1386.5 31.5 A 30.422 30.422 0 0 0 1383.596 30.224 A 23.42 23.42 0 0 0 1381.15 29.45 A 20.543 20.543 0 0 0 1378.107 28.924 A 26.355 26.355 0 0 0 1375.5 28.8 A 15.889 15.889 0 0 0 1368.247 30.443 A 16.132 16.132 0 0 0 1363.75 33.85 Q 1359 38.9 1359 47.8 A 25.192 25.192 0 0 0 1359.705 53.86 A 21.45 21.45 0 0 0 1361 57.6 A 18.564 18.564 0 0 0 1363.91 62.177 A 16.275 16.275 0 0 0 1366.55 64.6 Q 1370.1 67.2 1374.9 67.2 Q 1378.065 67.2 1380.468 66.61 A 15.08 15.08 0 0 0 1381.4 66.35 Q 1384.089 65.503 1387.176 63.912 A 49.095 49.095 0 0 0 1387.2 63.9 L 1390 71.5 Q 1386.9 73.2 1383.05 74.2 Q 1379.2 75.2 1374.3 75.2 A 26.803 26.803 0 0 1 1367.261 74.31 A 22.074 22.074 0 0 1 1361.35 71.75 Q 1355.8 68.3 1352.8 62.15 Q 1349.8 56 1349.8 48 Q 1349.8 40.5 1352.85 34.3 Q 1355.9 28.1 1361.6 24.45 A 23.067 23.067 0 0 1 1371.268 21.029 A 29.608 29.608 0 0 1 1375 20.8 Q 1379.4 20.8 1382.75 21.6 Q 1386.1 22.4 1389.2 23.9 Z M 1435.4 23.9 L 1432.7 31.5 A 30.422 30.422 0 0 0 1429.796 30.224 A 23.42 23.42 0 0 0 1427.35 29.45 A 20.543 20.543 0 0 0 1424.307 28.924 A 26.355 26.355 0 0 0 1421.7 28.8 A 15.889 15.889 0 0 0 1414.447 30.443 A 16.132 16.132 0 0 0 1409.95 33.85 Q 1405.2 38.9 1405.2 47.8 A 25.192 25.192 0 0 0 1405.905 53.86 A 21.45 21.45 0 0 0 1407.2 57.6 A 18.564 18.564 0 0 0 1410.11 62.177 A 16.275 16.275 0 0 0 1412.75 64.6 Q 1416.3 67.2 1421.1 67.2 Q 1424.265 67.2 1426.668 66.61 A 15.08 15.08 0 0 0 1427.6 66.35 Q 1430.289 65.503 1433.376 63.912 A 49.095 49.095 0 0 0 1433.4 63.9 L 1436.2 71.5 Q 1433.1 73.2 1429.25 74.2 Q 1425.4 75.2 1420.5 75.2 A 26.803 26.803 0 0 1 1413.461 74.31 A 22.074 22.074 0 0 1 1407.55 71.75 Q 1402 68.3 1399 62.15 Q 1396 56 1396 48 Q 1396 40.5 1399.05 34.3 Q 1402.1 28.1 1407.8 24.45 A 23.067 23.067 0 0 1 1417.468 21.029 A 29.608 29.608 0 0 1 1421.2 20.8 Q 1425.6 20.8 1428.95 21.6 Q 1432.3 22.4 1435.4 23.9 Z M 1195.8 26.2 L 1195.8 22 L 1204 22 L 1204 61.4 A 12.15 12.15 0 0 0 1204.102 63.036 Q 1204.434 65.47 1205.85 66.35 Q 1207.7 67.5 1209.9 67.5 L 1208 74.5 A 17.722 17.722 0 0 1 1203.735 74.028 Q 1198.098 72.628 1196.503 67.08 A 13.59 13.59 0 0 1 1196.4 66.7 A 21.307 21.307 0 0 1 1193.29 70.126 A 28.498 28.498 0 0 1 1190.15 72.55 Q 1186.2 75.2 1180.1 75.2 Q 1173.6 75.2 1168.3 71.9 A 22.947 22.947 0 0 1 1160.887 64.373 A 27.923 27.923 0 0 1 1159.85 62.55 A 27.228 27.228 0 0 1 1157.22 54.608 A 36.644 36.644 0 0 1 1156.7 48.3 A 33.142 33.142 0 0 1 1157.697 40.031 A 27.968 27.968 0 0 1 1159.85 34.3 Q 1163 28.1 1168.55 24.45 A 22.297 22.297 0 0 1 1179.745 20.844 A 27.388 27.388 0 0 1 1181.3 20.8 A 22.584 22.584 0 0 1 1186.094 21.29 A 18.703 18.703 0 0 1 1189.45 22.35 A 26.002 26.002 0 0 1 1193.737 24.644 A 22.103 22.103 0 0 1 1195.8 26.2 Z M 1945.2 26.2 L 1945.2 22 L 1953.4 22 L 1953.4 61.4 A 12.15 12.15 0 0 0 1953.502 63.036 Q 1953.834 65.47 1955.25 66.35 Q 1957.1 67.5 1959.3 67.5 L 1957.4 74.5 A 17.722 17.722 0 0 1 1953.135 74.028 Q 1947.498 72.628 1945.903 67.08 A 13.59 13.59 0 0 1 1945.8 66.7 A 21.307 21.307 0 0 1 1942.69 70.126 A 28.498 28.498 0 0 1 1939.55 72.55 Q 1935.6 75.2 1929.5 75.2 Q 1923 75.2 1917.7 71.9 A 22.947 22.947 0 0 1 1910.287 64.373 A 27.923 27.923 0 0 1 1909.25 62.55 A 27.228 27.228 0 0 1 1906.62 54.608 A 36.644 36.644 0 0 1 1906.1 48.3 A 33.142 33.142 0 0 1 1907.097 40.031 A 27.968 27.968 0 0 1 1909.25 34.3 Q 1912.4 28.1 1917.95 24.45 A 22.297 22.297 0 0 1 1929.145 20.844 A 27.388 27.388 0 0 1 1930.7 20.8 A 22.584 22.584 0 0 1 1935.494 21.29 A 18.703 18.703 0 0 1 1938.85 22.35 A 26.002 26.002 0 0 1 1943.137 24.644 A 22.103 22.103 0 0 1 1945.2 26.2 Z M 1221.4 57.7 L 1221.4 0 L 1230.4 0 L 1230.4 56.8 A 20.644 20.644 0 0 0 1230.588 59.688 Q 1231.05 62.952 1232.65 64.8 A 7.363 7.363 0 0 0 1237.234 67.276 A 10.724 10.724 0 0 0 1238.9 67.4 Q 1240.8 67.4 1242.65 66.95 A 22.192 22.192 0 0 0 1244.113 66.544 Q 1245.048 66.247 1245.8 65.9 L 1248 73.2 Q 1246.601 73.822 1244.688 74.323 A 34.978 34.978 0 0 1 1243.55 74.6 A 23.816 23.816 0 0 1 1240.395 75.085 A 30.514 30.514 0 0 1 1237.7 75.2 A 20.862 20.862 0 0 1 1232.81 74.646 A 17.544 17.544 0 0 1 1229.4 73.45 A 12.683 12.683 0 0 1 1224.075 68.685 A 15.856 15.856 0 0 1 1223.55 67.8 Q 1221.816 64.654 1221.48 60.012 A 32.105 32.105 0 0 1 1221.4 57.7 Z M 1762.6 57.7 L 1762.6 0 L 1771.6 0 L 1771.6 56.8 A 20.644 20.644 0 0 0 1771.788 59.688 Q 1772.25 62.952 1773.85 64.8 A 7.363 7.363 0 0 0 1778.434 67.276 A 10.724 10.724 0 0 0 1780.1 67.4 Q 1782 67.4 1783.85 66.95 A 22.192 22.192 0 0 0 1785.313 66.544 Q 1786.248 66.247 1787 65.9 L 1789.2 73.2 Q 1787.801 73.822 1785.888 74.323 A 34.978 34.978 0 0 1 1784.75 74.6 A 23.816 23.816 0 0 1 1781.595 75.085 A 30.514 30.514 0 0 1 1778.9 75.2 A 20.862 20.862 0 0 1 1774.01 74.646 A 17.544 17.544 0 0 1 1770.6 73.45 A 12.683 12.683 0 0 1 1765.275 68.685 A 15.856 15.856 0 0 1 1764.75 67.8 Q 1763.016 64.654 1762.68 60.012 A 32.105 32.105 0 0 1 1762.6 57.7 Z M 1796.2 57.7 L 1796.2 0 L 1805.2 0 L 1805.2 56.8 A 20.644 20.644 0 0 0 1805.388 59.688 Q 1805.85 62.952 1807.45 64.8 A 7.363 7.363 0 0 0 1812.034 67.276 A 10.724 10.724 0 0 0 1813.7 67.4 Q 1815.6 67.4 1817.45 66.95 A 22.192 22.192 0 0 0 1818.913 66.544 Q 1819.848 66.247 1820.6 65.9 L 1822.8 73.2 Q 1821.401 73.822 1819.488 74.323 A 34.978 34.978 0 0 1 1818.35 74.6 A 23.816 23.816 0 0 1 1815.195 75.085 A 30.514 30.514 0 0 1 1812.5 75.2 A 20.862 20.862 0 0 1 1807.61 74.646 A 17.544 17.544 0 0 1 1804.2 73.45 A 12.683 12.683 0 0 1 1798.875 68.685 A 15.856 15.856 0 0 1 1798.35 67.8 Q 1796.616 64.654 1796.28 60.012 A 32.105 32.105 0 0 1 1796.2 57.7 Z M 166.2 74 L 157.2 74 L 157.2 22 L 165.9 22 L 165.9 33.3 Q 167.2 30 169.4 27.15 Q 171.6 24.3 174.9 22.55 A 14.817 14.817 0 0 1 179.58 21.026 A 19.459 19.459 0 0 1 182.6 20.8 Q 184.1 20.8 185.6 20.95 A 18.972 18.972 0 0 1 186.655 21.084 Q 187.155 21.162 187.582 21.262 A 8.817 8.817 0 0 1 188.1 21.4 L 185.4 30.7 A 9.763 9.763 0 0 0 183.255 30.088 Q 182.159 29.9 180.9 29.9 A 12.958 12.958 0 0 0 174.27 31.746 A 15.609 15.609 0 0 0 173.85 32 Q 170.522 34.086 168.378 38.442 A 22.927 22.927 0 0 0 168.35 38.5 Q 166.587 42.107 166.27 47.328 A 39.09 39.09 0 0 0 166.2 49.7 L 166.2 74 Z M 347.9 74 L 338.9 74 L 338.9 22 L 347.6 22 L 347.6 33.3 Q 348.9 30 351.1 27.15 Q 353.3 24.3 356.6 22.55 A 14.817 14.817 0 0 1 361.28 21.026 A 19.459 19.459 0 0 1 364.3 20.8 Q 365.8 20.8 367.3 20.95 A 18.972 18.972 0 0 1 368.355 21.084 Q 368.855 21.162 369.282 21.262 A 8.817 8.817 0 0 1 369.8 21.4 L 367.1 30.7 A 9.763 9.763 0 0 0 364.955 30.088 Q 363.859 29.9 362.6 29.9 A 12.958 12.958 0 0 0 355.97 31.746 A 15.609 15.609 0 0 0 355.55 32 Q 352.222 34.086 350.078 38.442 A 22.927 22.927 0 0 0 350.05 38.5 Q 348.287 42.107 347.97 47.328 A 39.09 39.09 0 0 0 347.9 49.7 L 347.9 74 Z M 953.6 74 L 944.6 74 L 944.6 22 L 953.3 22 L 953.3 33.3 Q 954.6 30 956.8 27.15 Q 959 24.3 962.3 22.55 A 14.817 14.817 0 0 1 966.98 21.026 A 19.459 19.459 0 0 1 970 20.8 Q 971.5 20.8 973 20.95 A 18.972 18.972 0 0 1 974.055 21.084 Q 974.555 21.162 974.982 21.262 A 8.817 8.817 0 0 1 975.5 21.4 L 972.8 30.7 A 9.763 9.763 0 0 0 970.655 30.088 Q 969.559 29.9 968.3 29.9 A 12.958 12.958 0 0 0 961.67 31.746 A 15.609 15.609 0 0 0 961.25 32 Q 957.922 34.086 955.778 38.442 A 22.927 22.927 0 0 0 955.75 38.5 Q 953.987 42.107 953.67 47.328 A 39.09 39.09 0 0 0 953.6 49.7 L 953.6 74 Z M 2199.4 74 L 2190.4 74 L 2190.4 22 L 2199.1 22 L 2199.1 33.3 Q 2200.4 30 2202.6 27.15 Q 2204.8 24.3 2208.1 22.55 A 14.817 14.817 0 0 1 2212.78 21.026 A 19.459 19.459 0 0 1 2215.8 20.8 Q 2217.3 20.8 2218.8 20.95 A 18.972 18.972 0 0 1 2219.855 21.084 Q 2220.355 21.162 2220.782 21.262 A 8.817 8.817 0 0 1 2221.3 21.4 L 2218.6 30.7 A 9.763 9.763 0 0 0 2216.455 30.088 Q 2215.359 29.9 2214.1 29.9 A 12.958 12.958 0 0 0 2207.47 31.746 A 15.609 15.609 0 0 0 2207.05 32 Q 2203.722 34.086 2201.578 38.442 A 22.927 22.927 0 0 0 2201.55 38.5 Q 2199.787 42.107 2199.47 47.328 A 39.09 39.09 0 0 0 2199.4 49.7 L 2199.4 74 Z M 287.7 71.75 A 24.559 24.559 0 0 0 292.298 73.84 Q 296.353 75.2 301 75.2 Q 308.4 75.2 314.25 71.8 Q 320.1 68.4 323.5 62.25 A 26.255 26.255 0 0 0 326.153 55.109 A 34.184 34.184 0 0 0 326.9 47.8 A 34.542 34.542 0 0 0 326.415 41.891 A 25.795 25.795 0 0 0 323.45 33.45 Q 320 27.4 314.15 24.1 A 24.848 24.848 0 0 0 309.509 22.073 A 27.738 27.738 0 0 0 301 20.8 A 31.325 31.325 0 0 0 299.42 20.839 A 26.169 26.169 0 0 0 287.8 24.1 Q 281.9 27.4 278.5 33.5 A 26.023 26.023 0 0 0 275.751 41.09 A 35.006 35.006 0 0 0 275.1 48 A 34.82 34.82 0 0 0 275.365 52.354 A 27.451 27.451 0 0 0 278.45 62.15 Q 281.8 68.3 287.7 71.75 Z M 2139.2 71.75 A 24.559 24.559 0 0 0 2143.798 73.84 Q 2147.853 75.2 2152.5 75.2 Q 2159.9 75.2 2165.75 71.8 Q 2171.6 68.4 2175 62.25 A 26.255 26.255 0 0 0 2177.653 55.109 A 34.184 34.184 0 0 0 2178.4 47.8 A 34.542 34.542 0 0 0 2177.915 41.891 A 25.795 25.795 0 0 0 2174.95 33.45 Q 2171.5 27.4 2165.65 24.1 A 24.848 24.848 0 0 0 2161.009 22.073 A 27.738 27.738 0 0 0 2152.5 20.8 A 31.325 31.325 0 0 0 2150.92 20.839 A 26.169 26.169 0 0 0 2139.3 24.1 Q 2133.4 27.4 2130 33.5 A 26.023 26.023 0 0 0 2127.251 41.09 A 35.006 35.006 0 0 0 2126.6 48 A 34.82 34.82 0 0 0 2126.865 52.354 A 27.451 27.451 0 0 0 2129.95 62.15 Q 2133.3 68.3 2139.2 71.75 Z M 570.8 74 L 561.3 74 L 561.3 4 L 570.8 4 L 570.8 74 Z M 1085 74 L 1076 74 L 1076 22 L 1085 22 L 1085 74 Z M 2239.3 74 L 2230.3 74 L 2230.3 22 L 2239.3 22 L 2239.3 74 Z M 301 67.2 Q 308.9 67.2 313.3 61.85 A 18.802 18.802 0 0 0 317.119 53.76 A 27.105 27.105 0 0 0 317.7 48 Q 317.7 42.8 315.5 38.45 A 19.198 19.198 0 0 0 311.328 32.881 A 18.17 18.17 0 0 0 309.55 31.45 Q 305.8 28.8 301 28.8 A 19.249 19.249 0 0 0 295.774 29.472 A 14.037 14.037 0 0 0 288.7 34 A 17.878 17.878 0 0 0 285.026 41.374 Q 284.3 44.306 284.3 47.8 Q 284.3 53 286.5 57.45 A 19.437 19.437 0 0 0 290.03 62.49 A 17.627 17.627 0 0 0 292.45 64.55 Q 296.2 67.2 301 67.2 Z M 2152.5 67.2 Q 2160.4 67.2 2164.8 61.85 A 18.802 18.802 0 0 0 2168.619 53.76 A 27.105 27.105 0 0 0 2169.2 48 Q 2169.2 42.8 2167 38.45 A 19.198 19.198 0 0 0 2162.828 32.881 A 18.17 18.17 0 0 0 2161.05 31.45 Q 2157.3 28.8 2152.5 28.8 A 19.249 19.249 0 0 0 2147.274 29.472 A 14.037 14.037 0 0 0 2140.2 34 A 17.878 17.878 0 0 0 2136.526 41.374 Q 2135.8 44.306 2135.8 47.8 Q 2135.8 53 2138 57.45 A 19.437 19.437 0 0 0 2141.53 62.49 A 17.627 17.627 0 0 0 2143.95 64.55 Q 2147.7 67.2 2152.5 67.2 Z M 1195 60.7 L 1195 32.8 Q 1192.3 30.9 1189.05 29.75 Q 1185.8 28.6 1182.2 28.6 A 15.924 15.924 0 0 0 1177.229 29.354 A 14.024 14.024 0 0 0 1173.75 31.05 A 16.301 16.301 0 0 0 1168.731 36.474 A 19.962 19.962 0 0 0 1168 37.85 A 20.663 20.663 0 0 0 1166.247 43.527 A 27.678 27.678 0 0 0 1165.9 48 Q 1165.9 53.6 1168 57.95 A 17.602 17.602 0 0 0 1171.106 62.496 A 15.697 15.697 0 0 0 1173.8 64.75 Q 1177.5 67.2 1182.1 67.2 Q 1185.9 67.2 1189.3 65.35 Q 1192.7 63.5 1195 60.7 Z M 1944.4 60.7 L 1944.4 32.8 Q 1941.7 30.9 1938.45 29.75 Q 1935.2 28.6 1931.6 28.6 A 15.924 15.924 0 0 0 1926.629 29.354 A 14.024 14.024 0 0 0 1923.15 31.05 A 16.301 16.301 0 0 0 1918.131 36.474 A 19.962 19.962 0 0 0 1917.4 37.85 A 20.663 20.663 0 0 0 1915.647 43.527 A 27.678 27.678 0 0 0 1915.3 48 Q 1915.3 53.6 1917.4 57.95 A 17.602 17.602 0 0 0 1920.506 62.496 A 15.697 15.697 0 0 0 1923.2 64.75 Q 1926.9 67.2 1931.5 67.2 Q 1935.3 67.2 1938.7 65.35 Q 1942.1 63.5 1944.4 60.7 Z M 2390.3 60.9 L 2390.3 35.1 A 15.847 15.847 0 0 0 2388.189 32.927 Q 2387.068 31.964 2385.669 31.066 A 28.139 28.139 0 0 0 2385 30.65 Q 2381.6 28.6 2377.5 28.6 A 14.946 14.946 0 0 0 2372.544 29.4 A 13.385 13.385 0 0 0 2369.1 31.2 A 16.69 16.69 0 0 0 2363.93 37.35 A 19.924 19.924 0 0 0 2363.55 38.15 A 22.19 22.19 0 0 0 2361.81 44.514 A 28.113 28.113 0 0 0 2361.6 48 A 24.757 24.757 0 0 0 2362.193 53.519 A 20.327 20.327 0 0 0 2363.7 57.85 A 18.205 18.205 0 0 0 2366.74 62.363 A 16.122 16.122 0 0 0 2369.45 64.7 Q 2373.1 67.2 2377.6 67.2 Q 2381.3 67.2 2384.65 65.45 Q 2388 63.7 2390.3 60.9 Z M 1311.6 13.4 L 1298.4 47 L 1324.7 47 L 1311.6 13.4 Z M 793.2 43.8 L 759.2 43.8 L 759.2 35.6 L 793.2 35.6 L 793.2 43.8 Z M 108.4 44.4 L 136.9 44.4 A 24.355 24.355 0 0 0 136.496 39.815 Q 136 37.231 134.896 35.207 A 12.422 12.422 0 0 0 133.1 32.7 A 12.488 12.488 0 0 0 126.139 28.924 A 18.395 18.395 0 0 0 122.6 28.6 A 13.58 13.58 0 0 0 117.488 29.535 A 12.524 12.524 0 0 0 113 32.65 Q 109.2 36.7 108.4 44.4 Z M 895.8 44.4 L 924.3 44.4 A 24.355 24.355 0 0 0 923.896 39.815 Q 923.4 37.231 922.296 35.207 A 12.422 12.422 0 0 0 920.5 32.7 A 12.488 12.488 0 0 0 913.539 28.924 A 18.395 18.395 0 0 0 910 28.6 A 13.58 13.58 0 0 0 904.888 29.535 A 12.524 12.524 0 0 0 900.4 32.65 Q 896.6 36.7 895.8 44.4 Z M 1451.3 44.4 L 1479.8 44.4 A 24.355 24.355 0 0 0 1479.396 39.815 Q 1478.9 37.231 1477.796 35.207 A 12.422 12.422 0 0 0 1476 32.7 A 12.488 12.488 0 0 0 1469.039 28.924 A 18.395 18.395 0 0 0 1465.5 28.6 A 13.58 13.58 0 0 0 1460.388 29.535 A 12.524 12.524 0 0 0 1455.9 32.65 Q 1452.1 36.7 1451.3 44.4 Z M 2307.1 44.4 L 2335.6 44.4 A 24.355 24.355 0 0 0 2335.196 39.815 Q 2334.7 37.231 2333.596 35.207 A 12.422 12.422 0 0 0 2331.8 32.7 A 12.488 12.488 0 0 0 2324.839 28.924 A 18.395 18.395 0 0 0 2321.3 28.6 A 13.58 13.58 0 0 0 2316.188 29.535 A 12.524 12.524 0 0 0 2311.7 32.65 Q 2307.9 36.7 2307.1 44.4 Z M 696.563 73.262 A 6.418 6.418 0 0 0 701.2 75.2 A 8.605 8.605 0 0 0 701.822 75.178 A 6.461 6.461 0 0 0 706 73.35 Q 707.9 71.5 707.9 68.5 A 6.225 6.225 0 0 0 707.321 65.829 A 6.955 6.955 0 0 0 705.85 63.8 A 8.478 8.478 0 0 0 705.329 63.331 A 6.325 6.325 0 0 0 701.2 61.8 A 8.813 8.813 0 0 0 699.347 61.985 A 5.979 5.979 0 0 0 696.3 63.6 A 5.927 5.927 0 0 0 694.732 66.44 A 8.624 8.624 0 0 0 694.5 68.5 Q 694.5 71.2 696.5 73.2 A 8.317 8.317 0 0 0 696.563 73.262 Z M 1596.063 73.262 A 6.418 6.418 0 0 0 1600.7 75.2 A 8.605 8.605 0 0 0 1601.322 75.178 A 6.461 6.461 0 0 0 1605.5 73.35 Q 1607.4 71.5 1607.4 68.5 A 6.225 6.225 0 0 0 1606.821 65.829 A 6.955 6.955 0 0 0 1605.35 63.8 A 8.478 8.478 0 0 0 1604.829 63.331 A 6.325 6.325 0 0 0 1600.7 61.8 A 8.813 8.813 0 0 0 1598.847 61.985 A 5.979 5.979 0 0 0 1595.8 63.6 A 5.927 5.927 0 0 0 1594.232 66.44 A 8.624 8.624 0 0 0 1594 68.5 Q 1594 71.2 1596 73.2 A 8.317 8.317 0 0 0 1596.063 73.262 Z M 1596.063 32.262 A 6.418 6.418 0 0 0 1600.7 34.2 A 8.605 8.605 0 0 0 1601.322 34.178 A 6.461 6.461 0 0 0 1605.5 32.35 Q 1607.4 30.5 1607.4 27.5 A 6.225 6.225 0 0 0 1606.821 24.829 A 6.955 6.955 0 0 0 1605.35 22.8 A 8.478 8.478 0 0 0 1604.829 22.331 A 6.325 6.325 0 0 0 1600.7 20.8 A 8.813 8.813 0 0 0 1598.847 20.985 A 5.979 5.979 0 0 0 1595.8 22.6 A 5.927 5.927 0 0 0 1594.232 25.44 A 8.624 8.624 0 0 0 1594 27.5 Q 1594 30.2 1596 32.2 A 8.317 8.317 0 0 0 1596.063 32.262 Z M 1076.137 11.288 A 5.973 5.973 0 0 0 1080.5 13.1 A 8.175 8.175 0 0 0 1081.996 12.969 A 5.647 5.647 0 0 0 1085.1 11.35 Q 1086.8 9.6 1086.8 6.8 A 7.26 7.26 0 0 0 1086.8 6.719 A 6.06 6.06 0 0 0 1084.95 2.35 A 7.395 7.395 0 0 0 1084.892 2.293 A 6.059 6.059 0 0 0 1080.5 0.5 A 8.264 8.264 0 0 0 1078.844 0.658 A 5.661 5.661 0 0 0 1075.9 2.2 A 5.588 5.588 0 0 0 1074.429 4.832 A 7.987 7.987 0 0 0 1074.2 6.8 A 5.992 5.992 0 0 0 1074.692 9.219 A 6.643 6.643 0 0 0 1076.05 11.2 A 7.466 7.466 0 0 0 1076.137 11.288 Z M 2230.437 11.288 A 5.973 5.973 0 0 0 2234.8 13.1 A 8.175 8.175 0 0 0 2236.296 12.969 A 5.647 5.647 0 0 0 2239.4 11.35 Q 2241.1 9.6 2241.1 6.8 A 7.26 7.26 0 0 0 2241.1 6.719 A 6.06 6.06 0 0 0 2239.25 2.35 A 7.395 7.395 0 0 0 2239.192 2.293 A 6.059 6.059 0 0 0 2234.8 0.5 A 8.264 8.264 0 0 0 2233.144 0.658 A 5.661 5.661 0 0 0 2230.2 2.2 A 5.588 5.588 0 0 0 2228.729 4.832 A 7.987 7.987 0 0 0 2228.5 6.8 A 5.992 5.992 0 0 0 2228.992 9.219 A 6.643 6.643 0 0 0 2230.35 11.2 A 7.466 7.466 0 0 0 2230.437 11.288 Z" vector-effect="non-scaling-stroke"/></g></svg>